<svg width="66" height="22" viewBox="0 0 66 22" fill="none" xmlns="http://www.w3.org/2000/svg">
<rect width="66" height="22" rx="11" fill="#ECFDF3"/>
<circle cx="10" cy="11" r="3" fill="#12B76A"/>
<path d="M24.3516 7.60547L21.8027 15H20.2617L23.4727 6.46875H24.457L24.3516 7.60547ZM26.4844 15L23.9297 7.60547L23.8184 6.46875H24.8086L28.0312 15H26.4844ZM26.3613 11.8359V13.002H21.7207V11.8359H26.3613ZM31.4355 13.9922C31.666 13.9922 31.873 13.9473 32.0566 13.8574C32.2441 13.7637 32.3945 13.6348 32.5078 13.4707C32.625 13.3066 32.6895 13.1172 32.7012 12.9023H34.0312C34.0234 13.3125 33.9023 13.6855 33.668 14.0215C33.4336 14.3574 33.123 14.625 32.7363 14.8242C32.3496 15.0195 31.9219 15.1172 31.4531 15.1172C30.9688 15.1172 30.5469 15.0352 30.1875 14.8711C29.8281 14.7031 29.5293 14.4727 29.291 14.1797C29.0527 13.8867 28.873 13.5488 28.752 13.166C28.6348 12.7832 28.5762 12.373 28.5762 11.9355V11.7305C28.5762 11.293 28.6348 10.8828 28.752 10.5C28.873 10.1133 29.0527 9.77344 29.291 9.48047C29.5293 9.1875 29.8281 8.95898 30.1875 8.79492C30.5469 8.62695 30.9668 8.54297 31.4473 8.54297C31.9551 8.54297 32.4004 8.64453 32.7832 8.84766C33.166 9.04688 33.4668 9.32617 33.6855 9.68555C33.9082 10.041 34.0234 10.4551 34.0312 10.9277H32.7012C32.6895 10.6934 32.6309 10.4824 32.5254 10.2949C32.4238 10.1035 32.2793 9.95117 32.0918 9.83789C31.9082 9.72461 31.6875 9.66797 31.4297 9.66797C31.1445 9.66797 30.9082 9.72656 30.7207 9.84375C30.5332 9.95703 30.3867 10.1133 30.2812 10.3125C30.1758 10.5078 30.0996 10.7285 30.0527 10.9746C30.0098 11.2168 29.9883 11.4688 29.9883 11.7305V11.9355C29.9883 12.1973 30.0098 12.4512 30.0527 12.6973C30.0957 12.9434 30.1699 13.1641 30.2754 13.3594C30.3848 13.5508 30.5332 13.7051 30.7207 13.8223C30.9082 13.9355 31.1465 13.9922 31.4355 13.9922ZM37.7051 13.9922C37.9355 13.9922 38.1426 13.9473 38.3262 13.8574C38.5137 13.7637 38.6641 13.6348 38.7773 13.4707C38.8945 13.3066 38.959 13.1172 38.9707 12.9023H40.3008C40.293 13.3125 40.1719 13.6855 39.9375 14.0215C39.7031 14.3574 39.3926 14.625 39.0059 14.8242C38.6191 15.0195 38.1914 15.1172 37.7227 15.1172C37.2383 15.1172 36.8164 15.0352 36.457 14.8711C36.0977 14.7031 35.7988 14.4727 35.5605 14.1797C35.3223 13.8867 35.1426 13.5488 35.0215 13.166C34.9043 12.7832 34.8457 12.373 34.8457 11.9355V11.7305C34.8457 11.293 34.9043 10.8828 35.0215 10.5C35.1426 10.1133 35.3223 9.77344 35.5605 9.48047C35.7988 9.1875 36.0977 8.95898 36.457 8.79492C36.8164 8.62695 37.2363 8.54297 37.7168 8.54297C38.2246 8.54297 38.6699 8.64453 39.0527 8.84766C39.4355 9.04688 39.7363 9.32617 39.9551 9.68555C40.1777 10.041 40.293 10.4551 40.3008 10.9277H38.9707C38.959 10.6934 38.9004 10.4824 38.7949 10.2949C38.6934 10.1035 38.5488 9.95117 38.3613 9.83789C38.1777 9.72461 37.957 9.66797 37.6992 9.66797C37.4141 9.66797 37.1777 9.72656 36.9902 9.84375C36.8027 9.95703 36.6562 10.1133 36.5508 10.3125C36.4453 10.5078 36.3691 10.7285 36.3223 10.9746C36.2793 11.2168 36.2578 11.4688 36.2578 11.7305V11.9355C36.2578 12.1973 36.2793 12.4512 36.3223 12.6973C36.3652 12.9434 36.4395 13.1641 36.5449 13.3594C36.6543 13.5508 36.8027 13.7051 36.9902 13.8223C37.1777 13.9355 37.416 13.9922 37.7051 13.9922ZM44.1797 15.1172C43.7109 15.1172 43.2871 15.041 42.9082 14.8887C42.5332 14.7324 42.2129 14.5156 41.9473 14.2383C41.6855 13.9609 41.4844 13.6348 41.3438 13.2598C41.2031 12.8848 41.1328 12.4805 41.1328 12.0469V11.8125C41.1328 11.3164 41.2051 10.8672 41.3496 10.4648C41.4941 10.0625 41.6953 9.71875 41.9531 9.43359C42.2109 9.14453 42.5156 8.92383 42.8672 8.77148C43.2188 8.61914 43.5996 8.54297 44.0098 8.54297C44.4629 8.54297 44.8594 8.61914 45.1992 8.77148C45.5391 8.92383 45.8203 9.13867 46.043 9.41602C46.2695 9.68945 46.4375 10.0156 46.5469 10.3945C46.6602 10.7734 46.7168 11.1914 46.7168 11.6484V12.252H41.8184V11.2383H45.3223V11.127C45.3145 10.873 45.2637 10.6348 45.1699 10.4121C45.0801 10.1895 44.9414 10.0098 44.7539 9.87305C44.5664 9.73633 44.3164 9.66797 44.0039 9.66797C43.7695 9.66797 43.5605 9.71875 43.377 9.82031C43.1973 9.91797 43.0469 10.0605 42.9258 10.248C42.8047 10.4355 42.7109 10.6621 42.6445 10.9277C42.582 11.1895 42.5508 11.4844 42.5508 11.8125V12.0469C42.5508 12.3242 42.5879 12.582 42.6621 12.8203C42.7402 13.0547 42.8535 13.2598 43.002 13.4355C43.1504 13.6113 43.3301 13.75 43.541 13.8516C43.752 13.9492 43.9922 13.998 44.2617 13.998C44.6016 13.998 44.9043 13.9297 45.1699 13.793C45.4355 13.6562 45.666 13.4629 45.8613 13.2129L46.6055 13.9336C46.4688 14.1328 46.291 14.3242 46.0723 14.5078C45.8535 14.6875 45.5859 14.834 45.2695 14.9473C44.957 15.0605 44.5938 15.1172 44.1797 15.1172ZM49.2363 9.87891V17.4375H47.8242V8.66016H49.125L49.2363 9.87891ZM53.3672 11.7715V11.8945C53.3672 12.3555 53.3125 12.7832 53.2031 13.1777C53.0977 13.5684 52.9395 13.9102 52.7285 14.2031C52.5215 14.4922 52.2656 14.7168 51.9609 14.877C51.6562 15.0371 51.3047 15.1172 50.9062 15.1172C50.5117 15.1172 50.166 15.0449 49.8691 14.9004C49.5762 14.752 49.3281 14.543 49.125 14.2734C48.9219 14.0039 48.7578 13.6875 48.6328 13.3242C48.5117 12.957 48.4258 12.5547 48.375 12.1172V11.6426C48.4258 11.1777 48.5117 10.7559 48.6328 10.377C48.7578 9.99805 48.9219 9.67188 49.125 9.39844C49.3281 9.125 49.5762 8.91406 49.8691 8.76562C50.1621 8.61719 50.5039 8.54297 50.8945 8.54297C51.293 8.54297 51.6465 8.62109 51.9551 8.77734C52.2637 8.92969 52.5234 9.14844 52.7344 9.43359C52.9453 9.71484 53.1035 10.0547 53.209 10.4531C53.3145 10.8477 53.3672 11.2871 53.3672 11.7715ZM51.9551 11.8945V11.7715C51.9551 11.4785 51.9277 11.207 51.873 10.957C51.8184 10.7031 51.7324 10.4805 51.6152 10.2891C51.498 10.0977 51.3477 9.94922 51.1641 9.84375C50.9844 9.73438 50.7676 9.67969 50.5137 9.67969C50.2637 9.67969 50.0488 9.72266 49.8691 9.80859C49.6895 9.89062 49.5391 10.0059 49.418 10.1543C49.2969 10.3027 49.2031 10.4766 49.1367 10.6758C49.0703 10.8711 49.0234 11.084 48.9961 11.3145V12.4512C49.043 12.7324 49.123 12.9902 49.2363 13.2246C49.3496 13.459 49.5098 13.6465 49.7168 13.7871C49.9277 13.9238 50.1973 13.9922 50.5254 13.9922C50.7793 13.9922 50.9961 13.9375 51.1758 13.8281C51.3555 13.7188 51.502 13.5684 51.6152 13.377C51.7324 13.1816 51.8184 12.957 51.873 12.7031C51.9277 12.4492 51.9551 12.1797 51.9551 11.8945ZM57.4746 8.66016V9.69141H53.9004V8.66016H57.4746ZM54.9316 7.10742H56.3438V13.248C56.3438 13.4434 56.3711 13.5938 56.4258 13.6992C56.4844 13.8008 56.5645 13.8691 56.666 13.9043C56.7676 13.9395 56.8867 13.957 57.0234 13.957C57.1211 13.957 57.2148 13.9512 57.3047 13.9395C57.3945 13.9277 57.4668 13.916 57.5215 13.9043L57.5273 14.9824C57.4102 15.0176 57.2734 15.0488 57.1172 15.0762C56.9648 15.1035 56.7891 15.1172 56.5898 15.1172C56.2656 15.1172 55.9785 15.0605 55.7285 14.9473C55.4785 14.8301 55.2832 14.6406 55.1426 14.3789C55.002 14.1172 54.9316 13.7695 54.9316 13.3359V7.10742Z" fill="#027A48"/>
</svg>
