<svg width="20" height="20" viewBox="0 0 20 20" fill="none" xmlns="http://www.w3.org/2000/svg">
<path d="M1 3.5C1 2.11929 2.11929 1 3.5 1H5.5C6.88071 1 8 2.11929 8 3.5V5.5C8 6.88071 6.88071 8 5.5 8H3.5C2.11929 8 1 6.88071 1 5.5V3.5Z" stroke="white" stroke-width="1.5"/>
<path d="M1 14.5C1 13.1193 2.11929 12 3.5 12H5.5C6.88071 12 8 13.1193 8 14.5V16.5C8 17.8807 6.88071 19 5.5 19H3.5C2.11929 19 1 17.8807 1 16.5V14.5Z" stroke="white" stroke-width="1.5"/>
<path d="M12 14.5C12 13.1193 13.1193 12 14.5 12H16.5C17.8807 12 19 13.1193 19 14.5V16.5C19 17.8807 17.8807 19 16.5 19H14.5C13.1193 19 12 17.8807 12 16.5V14.5Z" stroke="white" stroke-width="1.5"/>
<path d="M12 3.5C12 2.11929 13.1193 1 14.5 1H16.5C17.8807 1 19 2.11929 19 3.5V5.5C19 6.88071 17.8807 8 16.5 8H14.5C13.1193 8 12 6.88071 12 5.5V3.5Z" stroke="white" stroke-width="1.5"/>
</svg>
