<svg width="38" height="22" viewBox="0 0 38 22" fill="none" xmlns="http://www.w3.org/2000/svg">
<path d="M36.8125 3.98107H1.18747C0.531944 3.98107 0 3.08922 0 1.99054C0 0.891688 0.532043 0 1.18747 0H36.8125C37.4681 0 38 0.891854 38 1.99054C38 3.08922 37.468 3.98107 36.8125 3.98107Z" fill="black"/>
<path d="M1.18747 8.53857H36.8125C37.4681 8.53857 38 9.43043 38 10.5291C38 11.6278 37.468 12.5196 36.8125 12.5196H1.18747C0.531944 12.5196 0 11.6278 0 10.5291C0 9.43043 0.531944 8.53857 1.18747 8.53857Z" fill="black"/>
<path d="M1.18749 17.0771H24.9375C25.5931 17.0771 26.125 17.969 26.125 19.0677C26.125 20.1665 25.593 21.0582 24.9375 21.0582H1.18749C0.531961 21.0582 1.71661e-05 20.1664 1.71661e-05 19.0677C-8.01086e-05 17.9688 0.531961 17.0771 1.18749 17.0771Z" fill="black"/>
</svg>
