<svg width="66" height="48" viewBox="0 0 66 48" fill="none" xmlns="http://www.w3.org/2000/svg">
<rect width="66" height="48" fill="#F5F5F5"/>
<g clip-path="url(#clip0_132_968)">
<rect width="1440" height="1024" transform="translate(-1307 -16)" fill="#F7F8FA"/>
<rect x="-1086" y="-16" width="1219" height="80" fill="white"/>
<path d="M25.8887 27.665L26.5953 27.9163L26.5953 27.9163L25.8887 27.665ZM26.7483 25.2475L26.0417 24.9962L26.0417 24.9962L26.7483 25.2475ZM40.0817 25.2475L40.7884 24.9962L40.0817 25.2475ZM40.9414 27.665L41.648 27.4137V27.4137L40.9414 27.665ZM39.999 28.25H26.831V29.75H39.999V28.25ZM26.5953 27.9163L27.455 25.4988L26.0417 24.9962L25.182 27.4137L26.5953 27.9163ZM27.9419 22.676V21.2222H26.4419V22.676H27.9419ZM38.8881 21.2222V22.676H40.3881V21.2222H38.8881ZM39.3751 25.4988L40.2347 27.9163L41.648 27.4137L40.7884 24.9962L39.3751 25.4988ZM38.8881 22.676C38.8881 23.6378 39.0528 24.5925 39.3751 25.4988L40.7884 24.9962C40.5235 24.2513 40.3881 23.4666 40.3881 22.676H38.8881ZM27.455 25.4988C27.7772 24.5925 27.9419 23.6378 27.9419 22.676H26.4419C26.4419 23.4666 26.3066 24.2513 26.0417 24.9962L27.455 25.4988ZM26.831 28.25C26.658 28.25 26.5375 28.0789 26.5953 27.9163L25.182 27.4137C24.7768 28.5531 25.6219 29.75 26.831 29.75V28.25ZM39.999 29.75C41.2081 29.75 42.0532 28.5531 41.648 27.4137L40.2347 27.9163C40.2926 28.0789 40.172 28.25 39.999 28.25V29.75ZM33.415 15.75C36.4378 15.75 38.8881 18.2001 38.8881 21.2222H40.3881C40.3881 17.3715 37.266 14.25 33.415 14.25V15.75ZM33.415 14.25C29.564 14.25 26.4419 17.3715 26.4419 21.2222H27.9419C27.9419 18.2001 30.3922 15.75 33.415 15.75V14.25ZM28.6647 29C28.6647 31.6235 30.7917 33.75 33.4152 33.75V32.25C31.6199 32.25 30.1647 30.7948 30.1647 29H28.6647ZM33.4152 33.75C36.0388 33.75 38.1658 31.6234 38.1658 29H36.6658C36.6658 30.7948 35.2106 32.25 33.4152 32.25V33.75Z" fill="#001136"/>
<circle cx="39" cy="17" r="5" fill="#E62CD8"/>
</g>
<defs>
<clipPath id="clip0_132_968">
<rect width="1440" height="1024" fill="white" transform="translate(-1307 -16)"/>
</clipPath>
</defs>
</svg>
