<svg width="54" height="67" viewBox="0 0 54 67" fill="none" xmlns="http://www.w3.org/2000/svg">
<path d="M42.9358 16.2191C42.9358 25.1024 35.7001 32.3381 26.8167 32.3381C17.9333 32.3381 10.6977 25.1024 10.6977 16.2191C10.6977 7.33604 17.9333 0.1 26.8167 0.1C35.7001 0.1 42.9358 7.33604 42.9358 16.2191ZM36.8645 16.2192C36.8645 10.6853 32.3502 6.17137 26.8167 6.17137C21.2833 6.17137 16.7689 10.6853 16.7689 16.2192C16.7689 21.7531 21.2832 26.267 26.8167 26.267C32.3506 26.267 36.8645 21.7527 36.8645 16.2192Z" fill="#7B7B7B" stroke="white" stroke-width="0.2"/>
<path d="M23.4275 34.2693H30.2036H30.2039C43.1237 34.2693 53.5311 44.6768 53.5301 57.5968V63.5799C53.5301 65.184 52.2041 66.5792 50.5307 66.5792C48.9266 66.5792 47.5313 65.2533 47.5313 63.5799V57.5968C47.5313 48.0264 39.701 40.2686 30.2031 40.2686H23.427C13.8566 40.2686 6.09877 48.0989 6.09877 57.5968V63.5799C6.09877 65.1824 4.70197 66.5792 3.09938 66.5792C1.49527 66.5792 0.1 65.2533 0.1 63.5799V57.5968C0.1 44.749 10.5077 34.2693 23.4275 34.2693Z" fill="#7B7B7B" stroke="white" stroke-width="0.2"/>
</svg>
