<svg width="50" height="22" viewBox="0 0 50 22" fill="none" xmlns="http://www.w3.org/2000/svg">
<rect width="50" height="22" rx="11" fill="#FFEFEF"/>
<path d="M9.01562 6.46875H12.0332C12.6816 6.46875 13.2344 6.56641 13.6914 6.76172C14.1484 6.95703 14.498 7.24609 14.7402 7.62891C14.9863 8.00781 15.1094 8.47656 15.1094 9.03516C15.1094 9.46094 15.0312 9.83594 14.875 10.1602C14.7188 10.4844 14.498 10.7578 14.2129 10.9805C13.9277 11.1992 13.5879 11.3691 13.1934 11.4902L12.748 11.707H10.0352L10.0234 10.541H12.0566C12.4082 10.541 12.7012 10.4785 12.9355 10.3535C13.1699 10.2285 13.3457 10.0586 13.4629 9.84375C13.584 9.625 13.6445 9.37891 13.6445 9.10547C13.6445 8.80859 13.5859 8.55078 13.4688 8.33203C13.3555 8.10938 13.1797 7.93945 12.9414 7.82227C12.7031 7.70117 12.4004 7.64062 12.0332 7.64062H10.4863V15H9.01562V6.46875ZM13.8848 15L11.8809 11.168L13.4219 11.1621L15.4551 14.9238V15H13.8848ZM19.2285 15.1172C18.7598 15.1172 18.3359 15.041 17.957 14.8887C17.582 14.7324 17.2617 14.5156 16.9961 14.2383C16.7344 13.9609 16.5332 13.6348 16.3926 13.2598C16.252 12.8848 16.1816 12.4805 16.1816 12.0469V11.8125C16.1816 11.3164 16.2539 10.8672 16.3984 10.4648C16.543 10.0625 16.7441 9.71875 17.002 9.43359C17.2598 9.14453 17.5645 8.92383 17.916 8.77148C18.2676 8.61914 18.6484 8.54297 19.0586 8.54297C19.5117 8.54297 19.9082 8.61914 20.248 8.77148C20.5879 8.92383 20.8691 9.13867 21.0918 9.41602C21.3184 9.68945 21.4863 10.0156 21.5957 10.3945C21.709 10.7734 21.7656 11.1914 21.7656 11.6484V12.252H16.8672V11.2383H20.3711V11.127C20.3633 10.873 20.3125 10.6348 20.2188 10.4121C20.1289 10.1895 19.9902 10.0098 19.8027 9.87305C19.6152 9.73633 19.3652 9.66797 19.0527 9.66797C18.8184 9.66797 18.6094 9.71875 18.4258 9.82031C18.2461 9.91797 18.0957 10.0605 17.9746 10.248C17.8535 10.4355 17.7598 10.6621 17.6934 10.9277C17.6309 11.1895 17.5996 11.4844 17.5996 11.8125V12.0469C17.5996 12.3242 17.6367 12.582 17.7109 12.8203C17.7891 13.0547 17.9023 13.2598 18.0508 13.4355C18.1992 13.6113 18.3789 13.75 18.5898 13.8516C18.8008 13.9492 19.041 13.998 19.3105 13.998C19.6504 13.998 19.9531 13.9297 20.2188 13.793C20.4844 13.6562 20.7148 13.4629 20.9102 13.2129L21.6543 13.9336C21.5176 14.1328 21.3398 14.3242 21.1211 14.5078C20.9023 14.6875 20.6348 14.834 20.3184 14.9473C20.0059 15.0605 19.6426 15.1172 19.2285 15.1172ZM22.9375 8.66016H24.3555V15.5508C24.3555 15.9844 24.2812 16.3496 24.1328 16.6465C23.9844 16.9473 23.7656 17.1738 23.4766 17.3262C23.1875 17.4824 22.834 17.5605 22.416 17.5605C22.291 17.5605 22.1621 17.5508 22.0293 17.5312C21.8926 17.5156 21.7637 17.4922 21.6426 17.4609L21.6484 16.3594C21.7305 16.375 21.8184 16.3867 21.9121 16.3945C22.002 16.4062 22.0879 16.4121 22.1699 16.4121C22.3379 16.4121 22.4785 16.3828 22.5918 16.3242C22.7051 16.2656 22.791 16.1738 22.8496 16.0488C22.9082 15.9238 22.9375 15.7578 22.9375 15.5508V8.66016ZM22.8145 6.99609C22.8145 6.78125 22.8867 6.60352 23.0312 6.46289C23.1758 6.31836 23.373 6.24609 23.623 6.24609C23.877 6.24609 24.0742 6.31836 24.2148 6.46289C24.3594 6.60352 24.4316 6.78125 24.4316 6.99609C24.4316 7.20703 24.3594 7.38281 24.2148 7.52344C24.0742 7.66406 23.877 7.73438 23.623 7.73438C23.373 7.73438 23.1758 7.66406 23.0312 7.52344C22.8867 7.38281 22.8145 7.20703 22.8145 6.99609ZM28.6738 15.1172C28.2051 15.1172 27.7812 15.041 27.4023 14.8887C27.0273 14.7324 26.707 14.5156 26.4414 14.2383C26.1797 13.9609 25.9785 13.6348 25.8379 13.2598C25.6973 12.8848 25.627 12.4805 25.627 12.0469V11.8125C25.627 11.3164 25.6992 10.8672 25.8438 10.4648C25.9883 10.0625 26.1895 9.71875 26.4473 9.43359C26.7051 9.14453 27.0098 8.92383 27.3613 8.77148C27.7129 8.61914 28.0938 8.54297 28.5039 8.54297C28.957 8.54297 29.3535 8.61914 29.6934 8.77148C30.0332 8.92383 30.3145 9.13867 30.5371 9.41602C30.7637 9.68945 30.9316 10.0156 31.041 10.3945C31.1543 10.7734 31.2109 11.1914 31.2109 11.6484V12.252H26.3125V11.2383H29.8164V11.127C29.8086 10.873 29.7578 10.6348 29.6641 10.4121C29.5742 10.1895 29.4355 10.0098 29.248 9.87305C29.0605 9.73633 28.8105 9.66797 28.498 9.66797C28.2637 9.66797 28.0547 9.71875 27.8711 9.82031C27.6914 9.91797 27.541 10.0605 27.4199 10.248C27.2988 10.4355 27.2051 10.6621 27.1387 10.9277C27.0762 11.1895 27.0449 11.4844 27.0449 11.8125V12.0469C27.0449 12.3242 27.082 12.582 27.1562 12.8203C27.2344 13.0547 27.3477 13.2598 27.4961 13.4355C27.6445 13.6113 27.8242 13.75 28.0352 13.8516C28.2461 13.9492 28.4863 13.998 28.7559 13.998C29.0957 13.998 29.3984 13.9297 29.6641 13.793C29.9297 13.6562 30.1602 13.4629 30.3555 13.2129L31.0996 13.9336C30.9629 14.1328 30.7852 14.3242 30.5664 14.5078C30.3477 14.6875 30.0801 14.834 29.7637 14.9473C29.4512 15.0605 29.0879 15.1172 28.6738 15.1172ZM34.9023 13.9922C35.1328 13.9922 35.3398 13.9473 35.5234 13.8574C35.7109 13.7637 35.8613 13.6348 35.9746 13.4707C36.0918 13.3066 36.1562 13.1172 36.168 12.9023H37.498C37.4902 13.3125 37.3691 13.6855 37.1348 14.0215C36.9004 14.3574 36.5898 14.625 36.2031 14.8242C35.8164 15.0195 35.3887 15.1172 34.9199 15.1172C34.4355 15.1172 34.0137 15.0352 33.6543 14.8711C33.2949 14.7031 32.9961 14.4727 32.7578 14.1797C32.5195 13.8867 32.3398 13.5488 32.2188 13.166C32.1016 12.7832 32.043 12.373 32.043 11.9355V11.7305C32.043 11.293 32.1016 10.8828 32.2188 10.5C32.3398 10.1133 32.5195 9.77344 32.7578 9.48047C32.9961 9.1875 33.2949 8.95898 33.6543 8.79492C34.0137 8.62695 34.4336 8.54297 34.9141 8.54297C35.4219 8.54297 35.8672 8.64453 36.25 8.84766C36.6328 9.04688 36.9336 9.32617 37.1523 9.68555C37.375 10.041 37.4902 10.4551 37.498 10.9277H36.168C36.1562 10.6934 36.0977 10.4824 35.9922 10.2949C35.8906 10.1035 35.7461 9.95117 35.5586 9.83789C35.375 9.72461 35.1543 9.66797 34.8965 9.66797C34.6113 9.66797 34.375 9.72656 34.1875 9.84375C34 9.95703 33.8535 10.1133 33.748 10.3125C33.6426 10.5078 33.5664 10.7285 33.5195 10.9746C33.4766 11.2168 33.4551 11.4688 33.4551 11.7305V11.9355C33.4551 12.1973 33.4766 12.4512 33.5195 12.6973C33.5625 12.9434 33.6367 13.1641 33.7422 13.3594C33.8516 13.5508 34 13.7051 34.1875 13.8223C34.375 13.9355 34.6133 13.9922 34.9023 13.9922ZM41.4883 8.66016V9.69141H37.9141V8.66016H41.4883ZM38.9453 7.10742H40.3574V13.248C40.3574 13.4434 40.3848 13.5938 40.4395 13.6992C40.498 13.8008 40.5781 13.8691 40.6797 13.9043C40.7812 13.9395 40.9004 13.957 41.0371 13.957C41.1348 13.957 41.2285 13.9512 41.3184 13.9395C41.4082 13.9277 41.4805 13.916 41.5352 13.9043L41.541 14.9824C41.4238 15.0176 41.2871 15.0488 41.1309 15.0762C40.9785 15.1035 40.8027 15.1172 40.6035 15.1172C40.2793 15.1172 39.9922 15.0605 39.7422 14.9473C39.4922 14.8301 39.2969 14.6406 39.1562 14.3789C39.0156 14.1172 38.9453 13.7695 38.9453 13.3359V7.10742Z" fill="#D31739"/>
</svg>
