<svg width="22" height="22" viewBox="0 0 22 22" fill="none" xmlns="http://www.w3.org/2000/svg">
<path d="M9.51651 2.29208C10.2129 1.21616 11.7871 1.21616 12.4835 2.29208L13.1162 3.26971C13.5148 3.88556 14.2524 4.1911 14.9697 4.03747L16.1084 3.7936C17.3616 3.52521 18.4748 4.63836 18.2064 5.89155L17.9625 7.03026C17.8089 7.74757 18.1144 8.4852 18.7303 8.88379L19.7079 9.51654C20.7838 10.2129 20.7838 11.7871 19.7079 12.4835L18.7303 13.1162C18.1144 13.5148 17.8089 14.2524 17.9625 14.9698L18.2064 16.1085C18.4748 17.3617 17.3616 18.4748 16.1084 18.2064L14.9697 17.9625C14.2524 17.8089 13.5148 18.1145 13.1162 18.7303L12.4835 19.7079C11.7871 20.7839 10.2129 20.7839 9.51651 19.7079L8.88376 18.7303C8.48517 18.1145 7.74754 17.8089 7.03023 17.9625L5.89152 18.2064C4.63833 18.4748 3.52518 17.3617 3.79357 16.1085L4.03744 14.9698C4.19107 14.2525 3.88553 13.5148 3.26968 13.1162L2.29205 12.4835C1.21613 11.7871 1.21613 10.2129 2.29205 9.51654L3.26968 8.88379C3.88553 8.4852 4.19107 7.74757 4.03744 7.03026L3.79357 5.89155C3.52518 4.63836 4.63833 3.52521 5.89152 3.7936L7.03023 4.03747C7.74754 4.1911 8.48517 3.88556 8.88376 3.26971L9.51651 2.29208Z" stroke="#757D91" stroke-width="1.5"/>
<path d="M14 11C14 12.6569 12.6568 14 11 14C9.34312 14 7.99998 12.6569 7.99998 11C7.99998 9.34316 9.34312 8.00001 11 8.00001C12.6568 8.00001 14 9.34316 14 11Z" stroke="#757D91" stroke-width="1.5"/>
</svg>
