<svg width="54" height="54" viewBox="0 0 54 54" fill="none" xmlns="http://www.w3.org/2000/svg">
<rect width="54" height="54" rx="27" fill="white" fill-opacity="0.47"/>
<g clip-path="url(#clip0_309_2359)">
<path d="M26.6143 8C36.8953 8 45.2288 16.3662 45.2288 26.6851C45.2288 37.0051 36.8953 45.37 26.6143 45.37C16.3333 45.37 8 37.005 8 26.6851C8 16.3662 16.3334 8 26.6143 8Z" fill="#3B5998"/>
<path d="M28.8805 20.8631H31.2794V17.3059H28.4594V17.3187C25.0425 17.4402 24.3421 19.3682 24.2804 21.3933H24.2734V23.1695H21.9467V26.6531H24.2734L24.2734 35.9909H27.7799L27.7799 26.6531H30.6524L31.2072 23.1695H27.7811V22.0964C27.7811 21.412 28.2347 20.8631 28.8805 20.8631Z" fill="white"/>
</g>
<defs>
<clipPath id="clip0_309_2359">
<rect width="37.2288" height="37.37" fill="white" transform="translate(8 8)"/>
</clipPath>
</defs>
</svg>
