<svg width="54" height="54" viewBox="0 0 54 54" fill="none" xmlns="http://www.w3.org/2000/svg">
<rect width="54" height="54" rx="27" fill="white" fill-opacity="0.47"/>
<g clip-path="url(#clip0_309_2380)">
<path d="M26.615 45.38C36.8958 45.38 45.23 37.0122 45.23 26.69C45.23 16.3678 36.8958 8 26.615 8C16.3342 8 8 16.3678 8 26.69C8 37.0122 16.3342 45.38 26.615 45.38Z" fill="#FF4500"/>
<path d="M35.9225 26.8361C35.9225 25.7081 35.01 24.7919 33.8865 24.7919C33.3375 24.7919 32.8394 25.0109 32.4722 25.365C31.0797 24.3575 29.1601 23.704 27.0259 23.631L27.953 19.2469L30.9852 19.893C31.0216 20.6669 31.6542 21.2838 32.4322 21.2838C33.2357 21.2838 33.8865 20.6304 33.8865 19.8237C33.8865 19.0169 33.2357 18.3635 32.4322 18.3635C31.8614 18.3635 31.3706 18.6957 31.1343 19.1776L27.7494 18.4548C27.6549 18.4329 27.5567 18.4511 27.4767 18.5059C27.3967 18.557 27.3386 18.641 27.3204 18.7359L26.2842 23.6274C24.1173 23.6894 22.1685 24.3392 20.7579 25.3613C20.3907 25.0072 19.8962 24.7919 19.3508 24.7919C18.2274 24.7919 17.3148 25.7081 17.3148 26.8361C17.3148 27.6684 17.8093 28.3802 18.5182 28.7014C18.4855 28.9059 18.471 29.1103 18.471 29.3183C18.471 32.465 22.1176 35.0166 26.6187 35.0166C31.1197 35.0166 34.7591 32.465 34.7591 29.3183C34.7591 29.1103 34.7409 28.9059 34.7118 28.7051C35.4245 28.3875 35.9225 27.672 35.9225 26.8361ZM21.9577 28.2962C21.9577 27.4895 22.6121 26.8361 23.412 26.8361C24.2155 26.8361 24.8663 27.4932 24.8663 28.2962C24.8663 29.103 24.2155 29.7564 23.412 29.7564C22.6085 29.7564 21.9577 29.103 21.9577 28.2962ZM30.069 32.1584C29.0764 33.1549 27.1713 33.2316 26.615 33.2316C26.0551 33.2316 24.1536 33.1549 23.1611 32.1584C23.0157 32.0123 23.0157 31.7714 23.1611 31.6217C23.3065 31.4757 23.5465 31.4757 23.6955 31.6217C24.3209 32.2496 25.6588 32.4723 26.615 32.4723C27.5712 32.4723 28.9092 32.2496 29.5382 31.6217C29.6873 31.4757 29.9236 31.4757 30.0726 31.6217C30.2181 31.7714 30.2181 32.0087 30.069 32.1584ZM29.8145 29.7564C29.011 29.7564 28.3602 29.0993 28.3602 28.2962C28.3602 27.4895 29.0146 26.8361 29.8145 26.8361C30.618 26.8361 31.2688 27.4932 31.2688 28.2962C31.2688 29.103 30.6144 29.7564 29.8145 29.7564Z" fill="white"/>
</g>
<defs>
<clipPath id="clip0_309_2380">
<rect width="37.23" height="37.38" fill="white" transform="translate(8 8)"/>
</clipPath>
</defs>
</svg>
