<svg width="16" height="12" viewBox="0 0 16 12" fill="none" xmlns="http://www.w3.org/2000/svg">
<path d="M2.12946 1.001L2.1255 0.926105C2.12078 0.926354 2.11715 0.927044 2.11535 0.927425C2.11392 0.927727 2.11244 0.928115 2.11378 0.927776L2.11386 0.927755C2.11458 0.92757 2.1172 0.926902 2.12039 0.926329C2.12085 0.926246 2.12133 0.926163 2.12184 0.92608C2.12525 0.925526 2.1298 0.925 2.13514 0.925H2.13807H13.8619H13.8649C13.8699 0.925 13.8742 0.925473 13.8775 0.925971L2.12946 1.001ZM2.12946 1.001C1.50608 1.006 1 1.5416 1 2.2004V9.7996C1 10.4615 1.51062 11 2.13807 11H13.8619C14.4894 11 15 10.4615 15 9.7996V2.2004C15 1.5416 14.4939 1.006 13.8705 1.0009C13.8696 1.0009 13.8687 1.00068 13.8678 1.00046C13.8668 1.00023 13.8659 1 13.8649 1H13.8619H2.13807H2.13514C2.13407 1 2.13306 1.00026 2.13207 1.00051C2.1312 1.00073 2.13034 1.00095 2.12946 1.001ZM8.30531 7.35114L9.85982 5.8668L13.578 10.125H2.42203L6.14018 5.8668L7.69469 7.35114L7.69474 7.35119C7.78081 7.43322 7.88988 7.475 8 7.475C8.11012 7.475 8.21919 7.43322 8.30526 7.35119L8.30531 7.35114ZM8 6.3572L3.30551 1.875H12.6945L8 6.3572ZM5.47016 5.2271L1.83176 9.39388V2.2004C1.83176 2.07384 1.90144 1.96757 2.00105 1.91455L5.47016 5.2271ZM14.1682 2.2004V9.39388L10.5298 5.2271L13.9989 1.91456C14.0985 1.96759 14.1682 2.07387 14.1682 2.2004Z" fill="#E1E1E1" stroke="#E1E1E1" stroke-width="0.15"/>
</svg>
