<svg width="54" height="54" viewBox="0 0 54 54" fill="none" xmlns="http://www.w3.org/2000/svg">
<rect width="54" height="54" rx="27" fill="white" fill-opacity="0.47"/>
<g clip-path="url(#clip0_309_2365)">
<g clip-path="url(#clip1_309_2365)">
<path d="M26.6143 45.3695C36.8947 45.3695 45.2286 37.004 45.2286 26.6846C45.2286 16.3652 36.8947 7.99976 26.6143 7.99976C16.334 7.99976 8.00012 16.3652 8.00012 26.6846C8.00012 37.004 16.334 45.3695 26.6143 45.3695Z" fill="#55ACEE"/>
<path d="M38.0164 21.4286C37.2187 21.7837 36.3607 22.0238 35.4608 22.1311C36.3796 21.5785 37.0847 20.7042 37.4175 19.6606C36.5578 20.1726 35.6051 20.544 34.5921 20.7441C33.7805 19.8765 32.6241 19.3342 31.3436 19.3342C28.8868 19.3342 26.8943 21.3343 26.8943 23.8004C26.8943 24.1505 26.9338 24.4912 27.0101 24.8183C23.3123 24.6321 20.0337 22.8542 17.839 20.1513C17.4561 20.8108 17.2364 21.5785 17.2364 22.3969C17.2364 23.946 18.0225 25.3136 19.2157 26.1143C18.4867 26.0913 17.8002 25.8905 17.2006 25.5551C17.2003 25.5741 17.2003 25.593 17.2003 25.6117C17.2003 27.7757 18.7346 29.5806 20.7696 29.9906C20.3967 30.0932 20.0028 30.1475 19.5976 30.1475C19.3103 30.1475 19.0319 30.1199 18.7605 30.0679C19.3266 31.8419 20.9694 33.1332 22.9168 33.1695C21.3938 34.3676 19.4755 35.0814 17.3904 35.0814C17.032 35.0814 16.677 35.0604 16.3296 35.0187C18.2976 36.2864 20.6369 37.0255 23.1494 37.0255C31.3333 37.0255 35.8088 30.2201 35.8088 24.3177C35.8088 24.1242 35.8045 23.9313 35.7959 23.7401C36.6659 23.1106 37.4201 22.3242 38.0164 21.4286Z" fill="#F1F2F2"/>
</g>
</g>
<defs>
<clipPath id="clip0_309_2365">
<rect width="37.2288" height="37.37" fill="white" transform="translate(8 8)"/>
</clipPath>
<clipPath id="clip1_309_2365">
<rect width="37.2288" height="37.37" fill="white" transform="translate(8 8)"/>
</clipPath>
</defs>
</svg>
