<svg width="18" height="18" viewBox="0 0 18 18" fill="none" xmlns="http://www.w3.org/2000/svg">
<path d="M17.4843 8.94031C17.1978 8.94031 16.9686 9.16846 16.9686 9.45364V14.1231C16.9686 15.3931 15.9295 16.4236 14.6575 16.4236H3.34253C2.06664 16.4236 1.03141 15.3893 1.03141 14.1231V9.37759C1.03141 9.09241 0.802207 8.86426 0.515705 8.86426C0.229202 8.86426 0 9.09241 0 9.37759V14.1231C0 15.9597 1.50127 17.4503 3.34253 17.4503H14.6575C16.5025 17.4503 18 15.9559 18 14.1231V9.45364C18 9.17226 17.7708 8.94031 17.4843 8.94031Z" fill="white"/>
<path d="M6.08542 4.98593L8.4844 2.59798V13.013C8.4844 13.2982 8.7136 13.5263 9.0001 13.5263C9.28661 13.5263 9.51581 13.2982 9.51581 13.013V2.59798L11.9148 4.98593C12.0141 5.0848 12.1478 5.13803 12.2777 5.13803C12.4114 5.13803 12.5413 5.0886 12.6406 4.98593C12.8431 4.7844 12.8431 4.46119 12.6406 4.25966L9.36301 0.997131C9.26751 0.902069 9.13381 0.845032 9.0001 0.845032C8.86258 0.845032 8.7327 0.898266 8.6372 0.997131L5.35961 4.25966C5.15715 4.46119 5.15715 4.7844 5.35961 4.98593C5.55825 5.18366 5.88678 5.18366 6.08542 4.98593Z" fill="white"/>
</svg>
